<?xml version="1.0" encoding="UTF-8" standalone="no"?>
<!DOCTYPE svg PUBLIC "-//W3C//DTD SVG 1.1//EN"
 "http://www.w3.org/Graphics/SVG/1.1/DTD/svg11.dtd">
<!-- Generated by graphviz version 2.43.0 (0)
 -->
<!-- Title: %3 Pages: 1 -->
<svg width="864pt" height="743pt"
 viewBox="0.00 0.00 864.00 743.36" xmlns="http://www.w3.org/2000/svg" xmlns:xlink="http://www.w3.org/1999/xlink">
<g id="graph0" class="graph" transform="scale(1.18 1.18) rotate(0) translate(4 871)">
<title>%3</title>
<polygon fill="white" stroke="transparent" points="-4,4 -4,-871 1013,-871 1013,4 -4,4"/>
<!-- 132660814886880 -->
<g id="node1" class="node">
<title>132660814886880</title>
<polygon fill="#caff70" stroke="black" points="887,-31 780,-31 780,0 887,0 887,-31"/>
<text text-anchor="middle" x="833.5" y="-7" font-family="monospace" font-size="10.00"> (1, 3, 64, 64)</text>
</g>
<!-- 132660813589488 -->
<g id="node2" class="node">
<title>132660813589488</title>
<polygon fill="lightgrey" stroke="black" points="890,-86 777,-86 777,-67 890,-67 890,-86"/>
<text text-anchor="middle" x="833.5" y="-74" font-family="monospace" font-size="10.00">SigmoidBackward0</text>
</g>
<!-- 132660813589488&#45;&gt;132660814886880 -->
<g id="edge36" class="edge">
<title>132660813589488&#45;&gt;132660814886880</title>
<path fill="none" stroke="black" d="M833.5,-66.79C833.5,-60.07 833.5,-50.4 833.5,-41.34"/>
<polygon fill="black" stroke="black" points="837,-41.19 833.5,-31.19 830,-41.19 837,-41.19"/>
</g>
<!-- 132660813589296 -->
<g id="node3" class="node">
<title>132660813589296</title>
<polygon fill="lightgrey" stroke="black" points="902,-141 765,-141 765,-122 902,-122 902,-141"/>
<text text-anchor="middle" x="833.5" y="-129" font-family="monospace" font-size="10.00">ConvolutionBackward0</text>
</g>
<!-- 132660813589296&#45;&gt;132660813589488 -->
<g id="edge1" class="edge">
<title>132660813589296&#45;&gt;132660813589488</title>
<path fill="none" stroke="black" d="M833.5,-121.75C833.5,-114.8 833.5,-104.85 833.5,-96.13"/>
<polygon fill="black" stroke="black" points="837,-96.09 833.5,-86.09 830,-96.09 837,-96.09"/>
</g>
<!-- 132660813590352 -->
<g id="node4" class="node">
<title>132660813590352</title>
<polygon fill="lightgrey" stroke="black" points="751,-196 656,-196 656,-177 751,-177 751,-196"/>
<text text-anchor="middle" x="703.5" y="-184" font-family="monospace" font-size="10.00">ReluBackward0</text>
</g>
<!-- 132660813590352&#45;&gt;132660813589296 -->
<g id="edge2" class="edge">
<title>132660813590352&#45;&gt;132660813589296</title>
<path fill="none" stroke="black" d="M724.39,-176.98C745.58,-168.34 778.63,-154.87 802.8,-145.02"/>
<polygon fill="black" stroke="black" points="804.29,-148.19 812.23,-141.17 801.65,-141.7 804.29,-148.19"/>
</g>
<!-- 132660813590304 -->
<g id="node5" class="node">
<title>132660813590304</title>
<polygon fill="lightgrey" stroke="black" points="759,-256.5 622,-256.5 622,-237.5 759,-237.5 759,-256.5"/>
<text text-anchor="middle" x="690.5" y="-244.5" font-family="monospace" font-size="10.00">ConvolutionBackward0</text>
</g>
<!-- 132660813590304&#45;&gt;132660813590352 -->
<g id="edge3" class="edge">
<title>132660813590304&#45;&gt;132660813590352</title>
<path fill="none" stroke="black" d="M692.42,-237.37C694.24,-229.16 697.05,-216.54 699.38,-206.05"/>
<polygon fill="black" stroke="black" points="702.82,-206.69 701.57,-196.17 695.99,-205.17 702.82,-206.69"/>
</g>
<!-- 132660813585120 -->
<g id="node6" class="node">
<title>132660813585120</title>
<polygon fill="lightgrey" stroke="black" points="609,-317 514,-317 514,-298 609,-298 609,-317"/>
<text text-anchor="middle" x="561.5" y="-305" font-family="monospace" font-size="10.00">ReluBackward0</text>
</g>
<!-- 132660813585120&#45;&gt;132660813590304 -->
<g id="edge4" class="edge">
<title>132660813585120&#45;&gt;132660813590304</title>
<path fill="none" stroke="black" d="M580.26,-297.99C601.85,-288.2 637.53,-272.02 662.43,-260.73"/>
<polygon fill="black" stroke="black" points="664.06,-263.83 671.72,-256.52 661.17,-257.46 664.06,-263.83"/>
</g>
<!-- 132660813592224 -->
<g id="node7" class="node">
<title>132660813592224</title>
<polygon fill="lightgrey" stroke="black" points="616,-377.5 479,-377.5 479,-358.5 616,-358.5 616,-377.5"/>
<text text-anchor="middle" x="547.5" y="-365.5" font-family="monospace" font-size="10.00">ConvolutionBackward0</text>
</g>
<!-- 132660813592224&#45;&gt;132660813585120 -->
<g id="edge5" class="edge">
<title>132660813592224&#45;&gt;132660813585120</title>
<path fill="none" stroke="black" d="M549.57,-358.37C551.53,-350.16 554.55,-337.54 557.06,-327.05"/>
<polygon fill="black" stroke="black" points="560.5,-327.71 559.43,-317.17 553.69,-326.08 560.5,-327.71"/>
</g>
<!-- 132660813592512 -->
<g id="node8" class="node">
<title>132660813592512</title>
<polygon fill="lightgrey" stroke="black" points="466,-438 371,-438 371,-419 466,-419 466,-438"/>
<text text-anchor="middle" x="418.5" y="-426" font-family="monospace" font-size="10.00">ReluBackward0</text>
</g>
<!-- 132660813592512&#45;&gt;132660813592224 -->
<g id="edge6" class="edge">
<title>132660813592512&#45;&gt;132660813592224</title>
<path fill="none" stroke="black" d="M437.26,-418.99C458.85,-409.2 494.53,-393.02 519.43,-381.73"/>
<polygon fill="black" stroke="black" points="521.06,-384.83 528.72,-377.52 518.17,-378.46 521.06,-384.83"/>
</g>
<!-- 132660813591888 -->
<g id="node9" class="node">
<title>132660813591888</title>
<polygon fill="lightgrey" stroke="black" points="473,-498.5 336,-498.5 336,-479.5 473,-479.5 473,-498.5"/>
<text text-anchor="middle" x="404.5" y="-486.5" font-family="monospace" font-size="10.00">ConvolutionBackward0</text>
</g>
<!-- 132660813591888&#45;&gt;132660813592512 -->
<g id="edge7" class="edge">
<title>132660813591888&#45;&gt;132660813592512</title>
<path fill="none" stroke="black" d="M406.57,-479.37C408.53,-471.16 411.55,-458.54 414.06,-448.05"/>
<polygon fill="black" stroke="black" points="417.5,-448.71 416.43,-438.17 410.69,-447.08 417.5,-448.71"/>
</g>
<!-- 132660813592464 -->
<g id="node10" class="node">
<title>132660813592464</title>
<polygon fill="lightgrey" stroke="black" points="323,-559 228,-559 228,-540 323,-540 323,-559"/>
<text text-anchor="middle" x="275.5" y="-547" font-family="monospace" font-size="10.00">ReluBackward0</text>
</g>
<!-- 132660813592464&#45;&gt;132660813591888 -->
<g id="edge8" class="edge">
<title>132660813592464&#45;&gt;132660813591888</title>
<path fill="none" stroke="black" d="M294.26,-539.99C315.85,-530.2 351.53,-514.02 376.43,-502.73"/>
<polygon fill="black" stroke="black" points="378.06,-505.83 385.72,-498.52 375.17,-499.46 378.06,-505.83"/>
</g>
<!-- 132660813593136 -->
<g id="node11" class="node">
<title>132660813593136</title>
<polygon fill="lightgrey" stroke="black" points="330,-619.5 193,-619.5 193,-600.5 330,-600.5 330,-619.5"/>
<text text-anchor="middle" x="261.5" y="-607.5" font-family="monospace" font-size="10.00">ConvolutionBackward0</text>
</g>
<!-- 132660813593136&#45;&gt;132660813592464 -->
<g id="edge9" class="edge">
<title>132660813593136&#45;&gt;132660813592464</title>
<path fill="none" stroke="black" d="M263.57,-600.37C265.53,-592.16 268.55,-579.54 271.06,-569.05"/>
<polygon fill="black" stroke="black" points="274.5,-569.71 273.43,-559.17 267.69,-568.08 274.5,-569.71"/>
</g>
<!-- 132660813586944 -->
<g id="node12" class="node">
<title>132660813586944</title>
<polygon fill="lightgrey" stroke="black" points="180,-680 85,-680 85,-661 180,-661 180,-680"/>
<text text-anchor="middle" x="132.5" y="-668" font-family="monospace" font-size="10.00">ReluBackward0</text>
</g>
<!-- 132660813586944&#45;&gt;132660813593136 -->
<g id="edge10" class="edge">
<title>132660813586944&#45;&gt;132660813593136</title>
<path fill="none" stroke="black" d="M151.26,-660.99C172.85,-651.2 208.53,-635.02 233.43,-623.73"/>
<polygon fill="black" stroke="black" points="235.06,-626.83 242.72,-619.52 232.17,-620.46 235.06,-626.83"/>
</g>
<!-- 132660813585600 -->
<g id="node13" class="node">
<title>132660813585600</title>
<polygon fill="lightgrey" stroke="black" points="187,-740.5 50,-740.5 50,-721.5 187,-721.5 187,-740.5"/>
<text text-anchor="middle" x="118.5" y="-728.5" font-family="monospace" font-size="10.00">ConvolutionBackward0</text>
</g>
<!-- 132660813585600&#45;&gt;132660813586944 -->
<g id="edge11" class="edge">
<title>132660813585600&#45;&gt;132660813586944</title>
<path fill="none" stroke="black" d="M120.57,-721.37C122.53,-713.16 125.55,-700.54 128.06,-690.05"/>
<polygon fill="black" stroke="black" points="131.5,-690.71 130.43,-680.17 124.69,-689.08 131.5,-690.71"/>
</g>
<!-- 132660813578880 -->
<g id="node14" class="node">
<title>132660813578880</title>
<polygon fill="lightgrey" stroke="black" points="110,-801 9,-801 9,-782 110,-782 110,-801"/>
<text text-anchor="middle" x="59.5" y="-789" font-family="monospace" font-size="10.00">AccumulateGrad</text>
</g>
<!-- 132660813578880&#45;&gt;132660813585600 -->
<g id="edge12" class="edge">
<title>132660813578880&#45;&gt;132660813585600</title>
<path fill="none" stroke="black" d="M68.21,-781.87C77.18,-772.97 91.38,-758.89 102.41,-747.95"/>
<polygon fill="black" stroke="black" points="105.12,-750.19 109.76,-740.67 100.19,-745.22 105.12,-750.19"/>
</g>
<!-- 132660814885360 -->
<g id="node15" class="node">
<title>132660814885360</title>
<polygon fill="lightblue" stroke="black" points="113,-867 0,-867 0,-837 113,-837 113,-867"/>
<text text-anchor="middle" x="56.5" y="-855" font-family="monospace" font-size="10.00">encoder.0.weight</text>
<text text-anchor="middle" x="56.5" y="-844" font-family="monospace" font-size="10.00"> (16, 3, 3, 3)</text>
</g>
<!-- 132660814885360&#45;&gt;132660813578880 -->
<g id="edge13" class="edge">
<title>132660814885360&#45;&gt;132660813578880</title>
<path fill="none" stroke="black" d="M57.23,-836.84C57.62,-829.21 58.1,-819.7 58.53,-811.45"/>
<polygon fill="black" stroke="black" points="62.03,-811.43 59.05,-801.27 55.04,-811.07 62.03,-811.43"/>
</g>
<!-- 132660813579024 -->
<g id="node16" class="node">
<title>132660813579024</title>
<polygon fill="lightgrey" stroke="black" points="230,-801 129,-801 129,-782 230,-782 230,-801"/>
<text text-anchor="middle" x="179.5" y="-789" font-family="monospace" font-size="10.00">AccumulateGrad</text>
</g>
<!-- 132660813579024&#45;&gt;132660813585600 -->
<g id="edge14" class="edge">
<title>132660813579024&#45;&gt;132660813585600</title>
<path fill="none" stroke="black" d="M170.5,-781.87C161.13,-772.88 146.25,-758.61 134.8,-747.64"/>
<polygon fill="black" stroke="black" points="137.18,-745.06 127.54,-740.67 132.33,-750.12 137.18,-745.06"/>
</g>
<!-- 132660814877840 -->
<g id="node17" class="node">
<title>132660814877840</title>
<polygon fill="lightblue" stroke="black" points="232,-867 131,-867 131,-837 232,-837 232,-867"/>
<text text-anchor="middle" x="181.5" y="-855" font-family="monospace" font-size="10.00">encoder.0.bias</text>
<text text-anchor="middle" x="181.5" y="-844" font-family="monospace" font-size="10.00"> (16)</text>
</g>
<!-- 132660814877840&#45;&gt;132660813579024 -->
<g id="edge15" class="edge">
<title>132660814877840&#45;&gt;132660813579024</title>
<path fill="none" stroke="black" d="M181.02,-836.84C180.76,-829.21 180.43,-819.7 180.15,-811.45"/>
<polygon fill="black" stroke="black" points="183.64,-811.14 179.8,-801.27 176.64,-811.38 183.64,-811.14"/>
</g>
<!-- 132660813582912 -->
<g id="node18" class="node">
<title>132660813582912</title>
<polygon fill="lightgrey" stroke="black" points="312,-680 211,-680 211,-661 312,-661 312,-680"/>
<text text-anchor="middle" x="261.5" y="-668" font-family="monospace" font-size="10.00">AccumulateGrad</text>
</g>
<!-- 132660813582912&#45;&gt;132660813593136 -->
<g id="edge16" class="edge">
<title>132660813582912&#45;&gt;132660813593136</title>
<path fill="none" stroke="black" d="M261.5,-660.87C261.5,-652.75 261.5,-640.31 261.5,-629.89"/>
<polygon fill="black" stroke="black" points="265,-629.67 261.5,-619.67 258,-629.67 265,-629.67"/>
</g>
<!-- 132660815540720 -->
<g id="node19" class="node">
<title>132660815540720</title>
<polygon fill="lightblue" stroke="black" points="318,-746 205,-746 205,-716 318,-716 318,-746"/>
<text text-anchor="middle" x="261.5" y="-734" font-family="monospace" font-size="10.00">encoder.2.weight</text>
<text text-anchor="middle" x="261.5" y="-723" font-family="monospace" font-size="10.00"> (32, 16, 3, 3)</text>
</g>
<!-- 132660815540720&#45;&gt;132660813582912 -->
<g id="edge17" class="edge">
<title>132660815540720&#45;&gt;132660813582912</title>
<path fill="none" stroke="black" d="M261.5,-715.84C261.5,-708.21 261.5,-698.7 261.5,-690.45"/>
<polygon fill="black" stroke="black" points="265,-690.27 261.5,-680.27 258,-690.27 265,-690.27"/>
</g>
<!-- 132660813584352 -->
<g id="node20" class="node">
<title>132660813584352</title>
<polygon fill="lightgrey" stroke="black" points="434,-680 333,-680 333,-661 434,-661 434,-680"/>
<text text-anchor="middle" x="383.5" y="-668" font-family="monospace" font-size="10.00">AccumulateGrad</text>
</g>
<!-- 132660813584352&#45;&gt;132660813593136 -->
<g id="edge18" class="edge">
<title>132660813584352&#45;&gt;132660813593136</title>
<path fill="none" stroke="black" d="M365.76,-660.99C345.43,-651.25 311.89,-635.16 288.36,-623.88"/>
<polygon fill="black" stroke="black" points="289.79,-620.68 279.26,-619.52 286.76,-627 289.79,-620.68"/>
</g>
<!-- 132660814875280 -->
<g id="node21" class="node">
<title>132660814875280</title>
<polygon fill="lightblue" stroke="black" points="437,-746 336,-746 336,-716 437,-716 437,-746"/>
<text text-anchor="middle" x="386.5" y="-734" font-family="monospace" font-size="10.00">encoder.2.bias</text>
<text text-anchor="middle" x="386.5" y="-723" font-family="monospace" font-size="10.00"> (32)</text>
</g>
<!-- 132660814875280&#45;&gt;132660813584352 -->
<g id="edge19" class="edge">
<title>132660814875280&#45;&gt;132660813584352</title>
<path fill="none" stroke="black" d="M385.77,-715.84C385.38,-708.21 384.9,-698.7 384.47,-690.45"/>
<polygon fill="black" stroke="black" points="387.96,-690.07 383.95,-680.27 380.97,-690.43 387.96,-690.07"/>
</g>
<!-- 132660813590592 -->
<g id="node22" class="node">
<title>132660813590592</title>
<polygon fill="lightgrey" stroke="black" points="455,-559 354,-559 354,-540 455,-540 455,-559"/>
<text text-anchor="middle" x="404.5" y="-547" font-family="monospace" font-size="10.00">AccumulateGrad</text>
</g>
<!-- 132660813590592&#45;&gt;132660813591888 -->
<g id="edge20" class="edge">
<title>132660813590592&#45;&gt;132660813591888</title>
<path fill="none" stroke="black" d="M404.5,-539.87C404.5,-531.75 404.5,-519.31 404.5,-508.89"/>
<polygon fill="black" stroke="black" points="408,-508.67 404.5,-498.67 401,-508.67 408,-508.67"/>
</g>
<!-- 132660871301696 -->
<g id="node23" class="node">
<title>132660871301696</title>
<polygon fill="lightblue" stroke="black" points="461,-625 348,-625 348,-595 461,-595 461,-625"/>
<text text-anchor="middle" x="404.5" y="-613" font-family="monospace" font-size="10.00">encoder.4.weight</text>
<text text-anchor="middle" x="404.5" y="-602" font-family="monospace" font-size="10.00"> (64, 32, 3, 3)</text>
</g>
<!-- 132660871301696&#45;&gt;132660813590592 -->
<g id="edge21" class="edge">
<title>132660871301696&#45;&gt;132660813590592</title>
<path fill="none" stroke="black" d="M404.5,-594.84C404.5,-587.21 404.5,-577.7 404.5,-569.45"/>
<polygon fill="black" stroke="black" points="408,-569.27 404.5,-559.27 401,-569.27 408,-569.27"/>
</g>
<!-- 132660813579456 -->
<g id="node24" class="node">
<title>132660813579456</title>
<polygon fill="lightgrey" stroke="black" points="577,-559 476,-559 476,-540 577,-540 577,-559"/>
<text text-anchor="middle" x="526.5" y="-547" font-family="monospace" font-size="10.00">AccumulateGrad</text>
</g>
<!-- 132660813579456&#45;&gt;132660813591888 -->
<g id="edge22" class="edge">
<title>132660813579456&#45;&gt;132660813591888</title>
<path fill="none" stroke="black" d="M508.76,-539.99C488.43,-530.25 454.89,-514.16 431.36,-502.88"/>
<polygon fill="black" stroke="black" points="432.79,-499.68 422.26,-498.52 429.76,-506 432.79,-499.68"/>
</g>
<!-- 132660871299856 -->
<g id="node25" class="node">
<title>132660871299856</title>
<polygon fill="lightblue" stroke="black" points="580,-625 479,-625 479,-595 580,-595 580,-625"/>
<text text-anchor="middle" x="529.5" y="-613" font-family="monospace" font-size="10.00">encoder.4.bias</text>
<text text-anchor="middle" x="529.5" y="-602" font-family="monospace" font-size="10.00"> (64)</text>
</g>
<!-- 132660871299856&#45;&gt;132660813579456 -->
<g id="edge23" class="edge">
<title>132660871299856&#45;&gt;132660813579456</title>
<path fill="none" stroke="black" d="M528.77,-594.84C528.38,-587.21 527.9,-577.7 527.47,-569.45"/>
<polygon fill="black" stroke="black" points="530.96,-569.07 526.95,-559.27 523.97,-569.43 530.96,-569.07"/>
</g>
<!-- 132660813585504 -->
<g id="node26" class="node">
<title>132660813585504</title>
<polygon fill="lightgrey" stroke="black" points="598,-438 497,-438 497,-419 598,-419 598,-438"/>
<text text-anchor="middle" x="547.5" y="-426" font-family="monospace" font-size="10.00">AccumulateGrad</text>
</g>
<!-- 132660813585504&#45;&gt;132660813592224 -->
<g id="edge24" class="edge">
<title>132660813585504&#45;&gt;132660813592224</title>
<path fill="none" stroke="black" d="M547.5,-418.87C547.5,-410.75 547.5,-398.31 547.5,-387.89"/>
<polygon fill="black" stroke="black" points="551,-387.67 547.5,-377.67 544,-387.67 551,-387.67"/>
</g>
<!-- 132660815230384 -->
<g id="node27" class="node">
<title>132660815230384</title>
<polygon fill="lightblue" stroke="black" points="604,-504 491,-504 491,-474 604,-474 604,-504"/>
<text text-anchor="middle" x="547.5" y="-492" font-family="monospace" font-size="10.00">decoder.0.weight</text>
<text text-anchor="middle" x="547.5" y="-481" font-family="monospace" font-size="10.00"> (64, 32, 3, 3)</text>
</g>
<!-- 132660815230384&#45;&gt;132660813585504 -->
<g id="edge25" class="edge">
<title>132660815230384&#45;&gt;132660813585504</title>
<path fill="none" stroke="black" d="M547.5,-473.84C547.5,-466.21 547.5,-456.7 547.5,-448.45"/>
<polygon fill="black" stroke="black" points="551,-448.27 547.5,-438.27 544,-448.27 551,-448.27"/>
</g>
<!-- 132660813584640 -->
<g id="node28" class="node">
<title>132660813584640</title>
<polygon fill="lightgrey" stroke="black" points="720,-438 619,-438 619,-419 720,-419 720,-438"/>
<text text-anchor="middle" x="669.5" y="-426" font-family="monospace" font-size="10.00">AccumulateGrad</text>
</g>
<!-- 132660813584640&#45;&gt;132660813592224 -->
<g id="edge26" class="edge">
<title>132660813584640&#45;&gt;132660813592224</title>
<path fill="none" stroke="black" d="M651.76,-418.99C631.43,-409.25 597.89,-393.16 574.36,-381.88"/>
<polygon fill="black" stroke="black" points="575.79,-378.68 565.26,-377.52 572.76,-385 575.79,-378.68"/>
</g>
<!-- 132660815217424 -->
<g id="node29" class="node">
<title>132660815217424</title>
<polygon fill="lightblue" stroke="black" points="723,-504 622,-504 622,-474 723,-474 723,-504"/>
<text text-anchor="middle" x="672.5" y="-492" font-family="monospace" font-size="10.00">decoder.0.bias</text>
<text text-anchor="middle" x="672.5" y="-481" font-family="monospace" font-size="10.00"> (32)</text>
</g>
<!-- 132660815217424&#45;&gt;132660813584640 -->
<g id="edge27" class="edge">
<title>132660815217424&#45;&gt;132660813584640</title>
<path fill="none" stroke="black" d="M671.77,-473.84C671.38,-466.21 670.9,-456.7 670.47,-448.45"/>
<polygon fill="black" stroke="black" points="673.96,-448.07 669.95,-438.27 666.97,-448.43 673.96,-448.07"/>
</g>
<!-- 132660813586224 -->
<g id="node30" class="node">
<title>132660813586224</title>
<polygon fill="lightgrey" stroke="black" points="741,-317 640,-317 640,-298 741,-298 741,-317"/>
<text text-anchor="middle" x="690.5" y="-305" font-family="monospace" font-size="10.00">AccumulateGrad</text>
</g>
<!-- 132660813586224&#45;&gt;132660813590304 -->
<g id="edge28" class="edge">
<title>132660813586224&#45;&gt;132660813590304</title>
<path fill="none" stroke="black" d="M690.5,-297.87C690.5,-289.75 690.5,-277.31 690.5,-266.89"/>
<polygon fill="black" stroke="black" points="694,-266.67 690.5,-256.67 687,-266.67 694,-266.67"/>
</g>
<!-- 132660871301776 -->
<g id="node31" class="node">
<title>132660871301776</title>
<polygon fill="lightblue" stroke="black" points="747,-383 634,-383 634,-353 747,-353 747,-383"/>
<text text-anchor="middle" x="690.5" y="-371" font-family="monospace" font-size="10.00">decoder.2.weight</text>
<text text-anchor="middle" x="690.5" y="-360" font-family="monospace" font-size="10.00"> (32, 16, 3, 3)</text>
</g>
<!-- 132660871301776&#45;&gt;132660813586224 -->
<g id="edge29" class="edge">
<title>132660871301776&#45;&gt;132660813586224</title>
<path fill="none" stroke="black" d="M690.5,-352.84C690.5,-345.21 690.5,-335.7 690.5,-327.45"/>
<polygon fill="black" stroke="black" points="694,-327.27 690.5,-317.27 687,-327.27 694,-327.27"/>
</g>
<!-- 132660813585648 -->
<g id="node32" class="node">
<title>132660813585648</title>
<polygon fill="lightgrey" stroke="black" points="863,-317 762,-317 762,-298 863,-298 863,-317"/>
<text text-anchor="middle" x="812.5" y="-305" font-family="monospace" font-size="10.00">AccumulateGrad</text>
</g>
<!-- 132660813585648&#45;&gt;132660813590304 -->
<g id="edge30" class="edge">
<title>132660813585648&#45;&gt;132660813590304</title>
<path fill="none" stroke="black" d="M794.76,-297.99C774.43,-288.25 740.89,-272.16 717.36,-260.88"/>
<polygon fill="black" stroke="black" points="718.79,-257.68 708.26,-256.52 715.76,-264 718.79,-257.68"/>
</g>
<!-- 132660871300736 -->
<g id="node33" class="node">
<title>132660871300736</title>
<polygon fill="lightblue" stroke="black" points="866,-383 765,-383 765,-353 866,-353 866,-383"/>
<text text-anchor="middle" x="815.5" y="-371" font-family="monospace" font-size="10.00">decoder.2.bias</text>
<text text-anchor="middle" x="815.5" y="-360" font-family="monospace" font-size="10.00"> (16)</text>
</g>
<!-- 132660871300736&#45;&gt;132660813585648 -->
<g id="edge31" class="edge">
<title>132660871300736&#45;&gt;132660813585648</title>
<path fill="none" stroke="black" d="M814.77,-352.84C814.38,-345.21 813.9,-335.7 813.47,-327.45"/>
<polygon fill="black" stroke="black" points="816.96,-327.07 812.95,-317.27 809.97,-327.43 816.96,-327.07"/>
</g>
<!-- 132660813584832 -->
<g id="node34" class="node">
<title>132660813584832</title>
<polygon fill="lightgrey" stroke="black" points="884,-196 783,-196 783,-177 884,-177 884,-196"/>
<text text-anchor="middle" x="833.5" y="-184" font-family="monospace" font-size="10.00">AccumulateGrad</text>
</g>
<!-- 132660813584832&#45;&gt;132660813589296 -->
<g id="edge32" class="edge">
<title>132660813584832&#45;&gt;132660813589296</title>
<path fill="none" stroke="black" d="M833.5,-176.75C833.5,-169.8 833.5,-159.85 833.5,-151.13"/>
<polygon fill="black" stroke="black" points="837,-151.09 833.5,-141.09 830,-151.09 837,-151.09"/>
</g>
<!-- 132660871305616 -->
<g id="node35" class="node">
<title>132660871305616</title>
<polygon fill="lightblue" stroke="black" points="890,-262 777,-262 777,-232 890,-232 890,-262"/>
<text text-anchor="middle" x="833.5" y="-250" font-family="monospace" font-size="10.00">decoder.4.weight</text>
<text text-anchor="middle" x="833.5" y="-239" font-family="monospace" font-size="10.00"> (16, 3, 3, 3)</text>
</g>
<!-- 132660871305616&#45;&gt;132660813584832 -->
<g id="edge33" class="edge">
<title>132660871305616&#45;&gt;132660813584832</title>
<path fill="none" stroke="black" d="M833.5,-231.84C833.5,-224.21 833.5,-214.7 833.5,-206.45"/>
<polygon fill="black" stroke="black" points="837,-206.27 833.5,-196.27 830,-206.27 837,-206.27"/>
</g>
<!-- 132660813585216 -->
<g id="node36" class="node">
<title>132660813585216</title>
<polygon fill="lightgrey" stroke="black" points="1006,-196 905,-196 905,-177 1006,-177 1006,-196"/>
<text text-anchor="middle" x="955.5" y="-184" font-family="monospace" font-size="10.00">AccumulateGrad</text>
</g>
<!-- 132660813585216&#45;&gt;132660813589296 -->
<g id="edge34" class="edge">
<title>132660813585216&#45;&gt;132660813589296</title>
<path fill="none" stroke="black" d="M935.9,-176.98C916.18,-168.42 885.55,-155.11 862.92,-145.28"/>
<polygon fill="black" stroke="black" points="864.02,-141.94 853.46,-141.17 861.24,-148.37 864.02,-141.94"/>
</g>
<!-- 132660871302096 -->
<g id="node37" class="node">
<title>132660871302096</title>
<polygon fill="lightblue" stroke="black" points="1009,-262 908,-262 908,-232 1009,-232 1009,-262"/>
<text text-anchor="middle" x="958.5" y="-250" font-family="monospace" font-size="10.00">decoder.4.bias</text>
<text text-anchor="middle" x="958.5" y="-239" font-family="monospace" font-size="10.00"> (3)</text>
</g>
<!-- 132660871302096&#45;&gt;132660813585216 -->
<g id="edge35" class="edge">
<title>132660871302096&#45;&gt;132660813585216</title>
<path fill="none" stroke="black" d="M957.77,-231.84C957.38,-224.21 956.9,-214.7 956.47,-206.45"/>
<polygon fill="black" stroke="black" points="959.96,-206.07 955.95,-196.27 952.97,-206.43 959.96,-206.07"/>
</g>
</g>
</svg>
