<?xml version="1.0" encoding="UTF-8" standalone="no"?>
<!DOCTYPE svg PUBLIC "-//W3C//DTD SVG 1.1//EN"
 "http://www.w3.org/Graphics/SVG/1.1/DTD/svg11.dtd">
<!-- Generated by graphviz version 2.43.0 (0)
 -->
<!-- Title: %3 Pages: 1 -->
<svg width="731pt" height="633pt"
 viewBox="0.00 0.00 731.00 633.00" xmlns="http://www.w3.org/2000/svg" xmlns:xlink="http://www.w3.org/1999/xlink">
<g id="graph0" class="graph" transform="scale(1 1) rotate(0) translate(4 629)">
<title>%3</title>
<polygon fill="white" stroke="transparent" points="-4,4 -4,-629 727,-629 727,4 -4,4"/>
<!-- 139694899009776 -->
<g id="node1" class="node">
<title>139694899009776</title>
<polygon fill="#caff70" stroke="black" points="601,-31 494,-31 494,0 601,0 601,-31"/>
<text text-anchor="middle" x="547.5" y="-7" font-family="monospace" font-size="10.00"> (1, 3, 64, 64)</text>
</g>
<!-- 139694898864400 -->
<g id="node2" class="node">
<title>139694898864400</title>
<polygon fill="lightgrey" stroke="black" points="604,-86 491,-86 491,-67 604,-67 604,-86"/>
<text text-anchor="middle" x="547.5" y="-74" font-family="monospace" font-size="10.00">SigmoidBackward0</text>
</g>
<!-- 139694898864400&#45;&gt;139694899009776 -->
<g id="edge24" class="edge">
<title>139694898864400&#45;&gt;139694899009776</title>
<path fill="none" stroke="black" d="M547.5,-66.79C547.5,-60.07 547.5,-50.4 547.5,-41.34"/>
<polygon fill="black" stroke="black" points="551,-41.19 547.5,-31.19 544,-41.19 551,-41.19"/>
</g>
<!-- 139694898861952 -->
<g id="node3" class="node">
<title>139694898861952</title>
<polygon fill="lightgrey" stroke="black" points="616,-141 479,-141 479,-122 616,-122 616,-141"/>
<text text-anchor="middle" x="547.5" y="-129" font-family="monospace" font-size="10.00">ConvolutionBackward0</text>
</g>
<!-- 139694898861952&#45;&gt;139694898864400 -->
<g id="edge1" class="edge">
<title>139694898861952&#45;&gt;139694898864400</title>
<path fill="none" stroke="black" d="M547.5,-121.75C547.5,-114.8 547.5,-104.85 547.5,-96.13"/>
<polygon fill="black" stroke="black" points="551,-96.09 547.5,-86.09 544,-96.09 551,-96.09"/>
</g>
<!-- 139694898864352 -->
<g id="node4" class="node">
<title>139694898864352</title>
<polygon fill="lightgrey" stroke="black" points="465,-196 370,-196 370,-177 465,-177 465,-196"/>
<text text-anchor="middle" x="417.5" y="-184" font-family="monospace" font-size="10.00">ReluBackward0</text>
</g>
<!-- 139694898864352&#45;&gt;139694898861952 -->
<g id="edge2" class="edge">
<title>139694898864352&#45;&gt;139694898861952</title>
<path fill="none" stroke="black" d="M438.39,-176.98C459.58,-168.34 492.63,-154.87 516.8,-145.02"/>
<polygon fill="black" stroke="black" points="518.29,-148.19 526.23,-141.17 515.65,-141.7 518.29,-148.19"/>
</g>
<!-- 139694898859456 -->
<g id="node5" class="node">
<title>139694898859456</title>
<polygon fill="lightgrey" stroke="black" points="473,-256.5 336,-256.5 336,-237.5 473,-237.5 473,-256.5"/>
<text text-anchor="middle" x="404.5" y="-244.5" font-family="monospace" font-size="10.00">ConvolutionBackward0</text>
</g>
<!-- 139694898859456&#45;&gt;139694898864352 -->
<g id="edge3" class="edge">
<title>139694898859456&#45;&gt;139694898864352</title>
<path fill="none" stroke="black" d="M406.42,-237.37C408.24,-229.16 411.05,-216.54 413.38,-206.05"/>
<polygon fill="black" stroke="black" points="416.82,-206.69 415.57,-196.17 409.99,-205.17 416.82,-206.69"/>
</g>
<!-- 139694898871072 -->
<g id="node6" class="node">
<title>139694898871072</title>
<polygon fill="lightgrey" stroke="black" points="323,-317 228,-317 228,-298 323,-298 323,-317"/>
<text text-anchor="middle" x="275.5" y="-305" font-family="monospace" font-size="10.00">ReluBackward0</text>
</g>
<!-- 139694898871072&#45;&gt;139694898859456 -->
<g id="edge4" class="edge">
<title>139694898871072&#45;&gt;139694898859456</title>
<path fill="none" stroke="black" d="M294.26,-297.99C315.85,-288.2 351.53,-272.02 376.43,-260.73"/>
<polygon fill="black" stroke="black" points="378.06,-263.83 385.72,-256.52 375.17,-257.46 378.06,-263.83"/>
</g>
<!-- 139694898870352 -->
<g id="node7" class="node">
<title>139694898870352</title>
<polygon fill="lightgrey" stroke="black" points="330,-377.5 193,-377.5 193,-358.5 330,-358.5 330,-377.5"/>
<text text-anchor="middle" x="261.5" y="-365.5" font-family="monospace" font-size="10.00">ConvolutionBackward0</text>
</g>
<!-- 139694898870352&#45;&gt;139694898871072 -->
<g id="edge5" class="edge">
<title>139694898870352&#45;&gt;139694898871072</title>
<path fill="none" stroke="black" d="M263.57,-358.37C265.53,-350.16 268.55,-337.54 271.06,-327.05"/>
<polygon fill="black" stroke="black" points="274.5,-327.71 273.43,-317.17 267.69,-326.08 274.5,-327.71"/>
</g>
<!-- 139694898863968 -->
<g id="node8" class="node">
<title>139694898863968</title>
<polygon fill="lightgrey" stroke="black" points="180,-438 85,-438 85,-419 180,-419 180,-438"/>
<text text-anchor="middle" x="132.5" y="-426" font-family="monospace" font-size="10.00">ReluBackward0</text>
</g>
<!-- 139694898863968&#45;&gt;139694898870352 -->
<g id="edge6" class="edge">
<title>139694898863968&#45;&gt;139694898870352</title>
<path fill="none" stroke="black" d="M151.26,-418.99C172.85,-409.2 208.53,-393.02 233.43,-381.73"/>
<polygon fill="black" stroke="black" points="235.06,-384.83 242.72,-377.52 232.17,-378.46 235.06,-384.83"/>
</g>
<!-- 139694898864064 -->
<g id="node9" class="node">
<title>139694898864064</title>
<polygon fill="lightgrey" stroke="black" points="187,-498.5 50,-498.5 50,-479.5 187,-479.5 187,-498.5"/>
<text text-anchor="middle" x="118.5" y="-486.5" font-family="monospace" font-size="10.00">ConvolutionBackward0</text>
</g>
<!-- 139694898864064&#45;&gt;139694898863968 -->
<g id="edge7" class="edge">
<title>139694898864064&#45;&gt;139694898863968</title>
<path fill="none" stroke="black" d="M120.57,-479.37C122.53,-471.16 125.55,-458.54 128.06,-448.05"/>
<polygon fill="black" stroke="black" points="131.5,-448.71 130.43,-438.17 124.69,-447.08 131.5,-448.71"/>
</g>
<!-- 139694898859312 -->
<g id="node10" class="node">
<title>139694898859312</title>
<polygon fill="lightgrey" stroke="black" points="110,-559 9,-559 9,-540 110,-540 110,-559"/>
<text text-anchor="middle" x="59.5" y="-547" font-family="monospace" font-size="10.00">AccumulateGrad</text>
</g>
<!-- 139694898859312&#45;&gt;139694898864064 -->
<g id="edge8" class="edge">
<title>139694898859312&#45;&gt;139694898864064</title>
<path fill="none" stroke="black" d="M68.21,-539.87C77.18,-530.97 91.38,-516.89 102.41,-505.95"/>
<polygon fill="black" stroke="black" points="105.12,-508.19 109.76,-498.67 100.19,-503.22 105.12,-508.19"/>
</g>
<!-- 139694900459728 -->
<g id="node11" class="node">
<title>139694900459728</title>
<polygon fill="lightblue" stroke="black" points="113,-625 0,-625 0,-595 113,-595 113,-625"/>
<text text-anchor="middle" x="56.5" y="-613" font-family="monospace" font-size="10.00">encoder.0.weight</text>
<text text-anchor="middle" x="56.5" y="-602" font-family="monospace" font-size="10.00"> (16, 3, 3, 3)</text>
</g>
<!-- 139694900459728&#45;&gt;139694898859312 -->
<g id="edge9" class="edge">
<title>139694900459728&#45;&gt;139694898859312</title>
<path fill="none" stroke="black" d="M57.23,-594.84C57.62,-587.21 58.1,-577.7 58.53,-569.45"/>
<polygon fill="black" stroke="black" points="62.03,-569.43 59.05,-559.27 55.04,-569.07 62.03,-569.43"/>
</g>
<!-- 139694898863776 -->
<g id="node12" class="node">
<title>139694898863776</title>
<polygon fill="lightgrey" stroke="black" points="230,-559 129,-559 129,-540 230,-540 230,-559"/>
<text text-anchor="middle" x="179.5" y="-547" font-family="monospace" font-size="10.00">AccumulateGrad</text>
</g>
<!-- 139694898863776&#45;&gt;139694898864064 -->
<g id="edge10" class="edge">
<title>139694898863776&#45;&gt;139694898864064</title>
<path fill="none" stroke="black" d="M170.5,-539.87C161.13,-530.88 146.25,-516.61 134.8,-505.64"/>
<polygon fill="black" stroke="black" points="137.18,-503.06 127.54,-498.67 132.33,-508.12 137.18,-503.06"/>
</g>
<!-- 139694900460048 -->
<g id="node13" class="node">
<title>139694900460048</title>
<polygon fill="lightblue" stroke="black" points="232,-625 131,-625 131,-595 232,-595 232,-625"/>
<text text-anchor="middle" x="181.5" y="-613" font-family="monospace" font-size="10.00">encoder.0.bias</text>
<text text-anchor="middle" x="181.5" y="-602" font-family="monospace" font-size="10.00"> (16)</text>
</g>
<!-- 139694900460048&#45;&gt;139694898863776 -->
<g id="edge11" class="edge">
<title>139694900460048&#45;&gt;139694898863776</title>
<path fill="none" stroke="black" d="M181.02,-594.84C180.76,-587.21 180.43,-577.7 180.15,-569.45"/>
<polygon fill="black" stroke="black" points="183.64,-569.14 179.8,-559.27 176.64,-569.38 183.64,-569.14"/>
</g>
<!-- 139694898862336 -->
<g id="node14" class="node">
<title>139694898862336</title>
<polygon fill="lightgrey" stroke="black" points="312,-438 211,-438 211,-419 312,-419 312,-438"/>
<text text-anchor="middle" x="261.5" y="-426" font-family="monospace" font-size="10.00">AccumulateGrad</text>
</g>
<!-- 139694898862336&#45;&gt;139694898870352 -->
<g id="edge12" class="edge">
<title>139694898862336&#45;&gt;139694898870352</title>
<path fill="none" stroke="black" d="M261.5,-418.87C261.5,-410.75 261.5,-398.31 261.5,-387.89"/>
<polygon fill="black" stroke="black" points="265,-387.67 261.5,-377.67 258,-387.67 265,-387.67"/>
</g>
<!-- 139694900460128 -->
<g id="node15" class="node">
<title>139694900460128</title>
<polygon fill="lightblue" stroke="black" points="318,-504 205,-504 205,-474 318,-474 318,-504"/>
<text text-anchor="middle" x="261.5" y="-492" font-family="monospace" font-size="10.00">encoder.2.weight</text>
<text text-anchor="middle" x="261.5" y="-481" font-family="monospace" font-size="10.00"> (32, 16, 3, 3)</text>
</g>
<!-- 139694900460128&#45;&gt;139694898862336 -->
<g id="edge13" class="edge">
<title>139694900460128&#45;&gt;139694898862336</title>
<path fill="none" stroke="black" d="M261.5,-473.84C261.5,-466.21 261.5,-456.7 261.5,-448.45"/>
<polygon fill="black" stroke="black" points="265,-448.27 261.5,-438.27 258,-448.27 265,-448.27"/>
</g>
<!-- 139694898858592 -->
<g id="node16" class="node">
<title>139694898858592</title>
<polygon fill="lightgrey" stroke="black" points="434,-438 333,-438 333,-419 434,-419 434,-438"/>
<text text-anchor="middle" x="383.5" y="-426" font-family="monospace" font-size="10.00">AccumulateGrad</text>
</g>
<!-- 139694898858592&#45;&gt;139694898870352 -->
<g id="edge14" class="edge">
<title>139694898858592&#45;&gt;139694898870352</title>
<path fill="none" stroke="black" d="M365.76,-418.99C345.43,-409.25 311.89,-393.16 288.36,-381.88"/>
<polygon fill="black" stroke="black" points="289.79,-378.68 279.26,-377.52 286.76,-385 289.79,-378.68"/>
</g>
<!-- 139694900460208 -->
<g id="node17" class="node">
<title>139694900460208</title>
<polygon fill="lightblue" stroke="black" points="437,-504 336,-504 336,-474 437,-474 437,-504"/>
<text text-anchor="middle" x="386.5" y="-492" font-family="monospace" font-size="10.00">encoder.2.bias</text>
<text text-anchor="middle" x="386.5" y="-481" font-family="monospace" font-size="10.00"> (32)</text>
</g>
<!-- 139694900460208&#45;&gt;139694898858592 -->
<g id="edge15" class="edge">
<title>139694900460208&#45;&gt;139694898858592</title>
<path fill="none" stroke="black" d="M385.77,-473.84C385.38,-466.21 384.9,-456.7 384.47,-448.45"/>
<polygon fill="black" stroke="black" points="387.96,-448.07 383.95,-438.27 380.97,-448.43 387.96,-448.07"/>
</g>
<!-- 139694898857344 -->
<g id="node18" class="node">
<title>139694898857344</title>
<polygon fill="lightgrey" stroke="black" points="455,-317 354,-317 354,-298 455,-298 455,-317"/>
<text text-anchor="middle" x="404.5" y="-305" font-family="monospace" font-size="10.00">AccumulateGrad</text>
</g>
<!-- 139694898857344&#45;&gt;139694898859456 -->
<g id="edge16" class="edge">
<title>139694898857344&#45;&gt;139694898859456</title>
<path fill="none" stroke="black" d="M404.5,-297.87C404.5,-289.75 404.5,-277.31 404.5,-266.89"/>
<polygon fill="black" stroke="black" points="408,-266.67 404.5,-256.67 401,-266.67 408,-266.67"/>
</g>
<!-- 139694900459968 -->
<g id="node19" class="node">
<title>139694900459968</title>
<polygon fill="lightblue" stroke="black" points="461,-383 348,-383 348,-353 461,-353 461,-383"/>
<text text-anchor="middle" x="404.5" y="-371" font-family="monospace" font-size="10.00">decoder.0.weight</text>
<text text-anchor="middle" x="404.5" y="-360" font-family="monospace" font-size="10.00"> (32, 16, 3, 3)</text>
</g>
<!-- 139694900459968&#45;&gt;139694898857344 -->
<g id="edge17" class="edge">
<title>139694900459968&#45;&gt;139694898857344</title>
<path fill="none" stroke="black" d="M404.5,-352.84C404.5,-345.21 404.5,-335.7 404.5,-327.45"/>
<polygon fill="black" stroke="black" points="408,-327.27 404.5,-317.27 401,-327.27 408,-327.27"/>
</g>
<!-- 139694898856528 -->
<g id="node20" class="node">
<title>139694898856528</title>
<polygon fill="lightgrey" stroke="black" points="577,-317 476,-317 476,-298 577,-298 577,-317"/>
<text text-anchor="middle" x="526.5" y="-305" font-family="monospace" font-size="10.00">AccumulateGrad</text>
</g>
<!-- 139694898856528&#45;&gt;139694898859456 -->
<g id="edge18" class="edge">
<title>139694898856528&#45;&gt;139694898859456</title>
<path fill="none" stroke="black" d="M508.76,-297.99C488.43,-288.25 454.89,-272.16 431.36,-260.88"/>
<polygon fill="black" stroke="black" points="432.79,-257.68 422.26,-256.52 429.76,-264 432.79,-257.68"/>
</g>
<!-- 139694900460288 -->
<g id="node21" class="node">
<title>139694900460288</title>
<polygon fill="lightblue" stroke="black" points="580,-383 479,-383 479,-353 580,-353 580,-383"/>
<text text-anchor="middle" x="529.5" y="-371" font-family="monospace" font-size="10.00">decoder.0.bias</text>
<text text-anchor="middle" x="529.5" y="-360" font-family="monospace" font-size="10.00"> (16)</text>
</g>
<!-- 139694900460288&#45;&gt;139694898856528 -->
<g id="edge19" class="edge">
<title>139694900460288&#45;&gt;139694898856528</title>
<path fill="none" stroke="black" d="M528.77,-352.84C528.38,-345.21 527.9,-335.7 527.47,-327.45"/>
<polygon fill="black" stroke="black" points="530.96,-327.07 526.95,-317.27 523.97,-327.43 530.96,-327.07"/>
</g>
<!-- 139694898859600 -->
<g id="node22" class="node">
<title>139694898859600</title>
<polygon fill="lightgrey" stroke="black" points="598,-196 497,-196 497,-177 598,-177 598,-196"/>
<text text-anchor="middle" x="547.5" y="-184" font-family="monospace" font-size="10.00">AccumulateGrad</text>
</g>
<!-- 139694898859600&#45;&gt;139694898861952 -->
<g id="edge20" class="edge">
<title>139694898859600&#45;&gt;139694898861952</title>
<path fill="none" stroke="black" d="M547.5,-176.75C547.5,-169.8 547.5,-159.85 547.5,-151.13"/>
<polygon fill="black" stroke="black" points="551,-151.09 547.5,-141.09 544,-151.09 551,-151.09"/>
</g>
<!-- 139694900460448 -->
<g id="node23" class="node">
<title>139694900460448</title>
<polygon fill="lightblue" stroke="black" points="604,-262 491,-262 491,-232 604,-232 604,-262"/>
<text text-anchor="middle" x="547.5" y="-250" font-family="monospace" font-size="10.00">decoder.2.weight</text>
<text text-anchor="middle" x="547.5" y="-239" font-family="monospace" font-size="10.00"> (16, 3, 3, 3)</text>
</g>
<!-- 139694900460448&#45;&gt;139694898859600 -->
<g id="edge21" class="edge">
<title>139694900460448&#45;&gt;139694898859600</title>
<path fill="none" stroke="black" d="M547.5,-231.84C547.5,-224.21 547.5,-214.7 547.5,-206.45"/>
<polygon fill="black" stroke="black" points="551,-206.27 547.5,-196.27 544,-206.27 551,-206.27"/>
</g>
<!-- 139694898865360 -->
<g id="node24" class="node">
<title>139694898865360</title>
<polygon fill="lightgrey" stroke="black" points="720,-196 619,-196 619,-177 720,-177 720,-196"/>
<text text-anchor="middle" x="669.5" y="-184" font-family="monospace" font-size="10.00">AccumulateGrad</text>
</g>
<!-- 139694898865360&#45;&gt;139694898861952 -->
<g id="edge22" class="edge">
<title>139694898865360&#45;&gt;139694898861952</title>
<path fill="none" stroke="black" d="M649.9,-176.98C630.18,-168.42 599.55,-155.11 576.92,-145.28"/>
<polygon fill="black" stroke="black" points="578.02,-141.94 567.46,-141.17 575.24,-148.37 578.02,-141.94"/>
</g>
<!-- 139694900460528 -->
<g id="node25" class="node">
<title>139694900460528</title>
<polygon fill="lightblue" stroke="black" points="723,-262 622,-262 622,-232 723,-232 723,-262"/>
<text text-anchor="middle" x="672.5" y="-250" font-family="monospace" font-size="10.00">decoder.2.bias</text>
<text text-anchor="middle" x="672.5" y="-239" font-family="monospace" font-size="10.00"> (3)</text>
</g>
<!-- 139694900460528&#45;&gt;139694898865360 -->
<g id="edge23" class="edge">
<title>139694900460528&#45;&gt;139694898865360</title>
<path fill="none" stroke="black" d="M671.77,-231.84C671.38,-224.21 670.9,-214.7 670.47,-206.45"/>
<polygon fill="black" stroke="black" points="673.96,-206.07 669.95,-196.27 666.97,-206.43 673.96,-206.07"/>
</g>
</g>
</svg>
